<svg width="159.52" height="256" version="1.1" viewBox="0 0 159.52 256" xmlns="http://www.w3.org/2000/svg">
	<g>
		<path d="m152.1 2.1695h-144.66c-2.6759 0-4.8474 2.1484-4.8474 4.7937v242.07c0 2.6529 2.1715 4.8012 4.8474 4.8012h144.66c2.6758 0 4.8472-2.1483 4.8472-4.8012v-242.07c0-2.6453-2.1715-4.7937-4.8472-4.7937" fill="#fff200"/>
		<g>
			<path d="m2.1172 13.016v12.898h155.41v-12.898z" fill="#fff"/>
			<path d="m156.53 2.9414h-153.4l-1.0078 11.363h155.41z" fill="#069b4e"/>
			<path d="m2.1172 24.938v10.893h155.4v-10.893z" fill="#ed1c24"/>
		</g>
		<path d="m151.52-9.2457e-4c4.4219 0 8.0015 3.5497 8.0015 7.9261v240.15c0 4.3763-3.5796 7.9261-8.0015 7.9261h-143.51c-4.422 0-8.0095-3.5498-8.0095-7.9261v-240.15c0-4.3764 3.5875-7.9261 8.0095-7.9261zm0 3.1704h-143.51c-2.6547 0-4.8088 2.1313-4.8088 4.7556v240.15c0 2.6318 2.1542 4.763 4.8088 4.763h143.51c2.6545 0 4.8087-2.1312 4.8087-4.763v-240.15c0-2.6243-2.1542-4.7556-4.8087-4.7556" fill="#231f20"/>
		<g>
			<path d="m76.94 49.057s-0.09091 0.91749-0.3111 1.464c-0.1972 0.49276-0.74328 0.84192-0.70526 1.1755 0.03767 0.33362 0.38682 0.72045 0.93283 1.0012 0.5309 0.28061 0.75101 0.493 1.297 0.62942 0.50841 0.12893 1.1453 0.50841 1.3352 0.07619 0.18178-0.425-0.0986-0.96363-0.40236-1.4719-0.53816-0.87959-0.81109-1.0843-1.6003-2.2978-0.17444-0.26555-0.31106-0.54632-0.54597-0.57653" fill="#231f20"/>
			<path d="m72.927 144.29c0.0454-0.1518 1.3196 0.64461 1.9797 1.0389 1.3879 0.82674 2.0096 1.32 3.2384 2.2453 0.97085 0.73559 1.4338 1.115 2.4119 1.9568 1.1985 1.0314 1.8434 1.9111 2.1692 1.7065 0.46306-0.56115-0.76569-2.1996-1.8503-3.087-1.0622-0.85711-2.1467-1.5701-2.9961-2.1312-1.0846-0.71299-1.1833-0.88779-2.8065-1.9798-1.7445-1.1604-3.2462-2.6244-3.2462-2.6244l-1.699-1.3347-2.6625-2.2453-2.9429-2.7227-2.2371-2.488s-1.7293-2.1162-2.0027-2.5255c-0.2803-0.40225-1.092-1.7145-1.7747-2.8295-0.59909-0.99337-1.7674-2.5408-1.8812-2.6772-0.62942-0.75835-2.0706-0.4551-3.7393-1.4336-2.0399-1.2059-2.5254-2.2982-2.5254-2.2982s-0.07608-0.15926-0.1518-0.25017c-0.07573-0.0909-0.23537-0.19719-0.23537-0.19719l-1.0539-0.74344-0.61428-0.40186s-0.46302-0.37937-1.047-0.62942c-0.58402-0.25801-1.8811-1.0164-1.8811-1.0164l-2.3284-1.4793s-0.90996-0.73536-1.2059-0.97823c-0.3111-0.24271-0.88728-0.56884-0.88728-0.56884s-0.36434-0.18213-0.4704-0.18986c-0.11378-7e-3 -0.59921-0.053-0.59921-0.053s-0.44737-0.11378-0.89508 0.42449c-0.46255 0.53129-0.34881 0.25056 0.38667 3.2617 0.29595 1.1984 0.2657 5.4003 0.5768 6.6745 0.40935 1.6461 1.5623 3.7622 1.676 4.0122 0.11378 0.25056 0.19732 1.1683 0.19732 1.1683s-0.04536 0.7432 0.03029 1.206c0.35657 2.1693 3.5269 0.74344 4.2248 3.7165 0.69008 2.9354-0.4097 5.8632-0.4097 5.8632s-0.69012 1.4563-1.6458 1.6838c-0.96355 0.22753-2.4574-1.8962-3.5348-3.6255-1.0616-1.6916-1.9416-3.9138-2.2145-4.6194-0.28061-0.70515-0.42484-0.8644-0.75089-1.3804-0.47781-0.75847-0.85718-0.62181-1.3956-1.8202-0.53106-1.2061-0.0532-1.6916-0.2958-2.7382-0.13654-0.58402-0.26547-0.6446-0.44752-1.4713-0.18202-0.83419-0.41716-3.4664-0.41716-3.4664l-0.33374-2.4574s-0.12136-1.115-0.27304-1.8201c-0.53863-2.45-0.72068-4.824-0.72068-4.824l-0.09848-0.97085-0.03802-1.0089s-0.03025-0.48531 0.09099-0.98592c0.11378-0.49288 0.36407-0.91026 0.36407-0.91026s0.48554-0.82678 0.56888-1.0314c0.08353-0.19732 1.0999-1.3728 1.0999-1.3728s0.52336-0.43995 1.3956-0.97085c0.85707-0.53082 1.6383-0.49316 1.6383-0.49316s0.22741-0.0225 1.7598 0.16687c1.5393 0.18963 4.6947 1.0316 5.4837 1.2364 0.7888 0.21262 1.7293 0.54612 2.3437 0.8797 1.7445 0.95571 2.2831 0.55382 0.88732-0.53827-0.94052-0.73595-1.2058-1.0621-1.9646-1.7599-0.63676-0.58406-1.1374-0.97834-1.6155-1.5168-0.47036-0.54609-1.8354-2.5562-1.8354-2.5562l-0.84961-1.259s-0.46244-0.5083-0.53082-0.54601c-0.06839-0.038-0.30341-0.22019-0.30341-0.22019s-0.56138 0.0303-1.1452-0.0834c-0.58402-0.11378-0.85742 0.7055-0.85742 0.7055s-1.2588 2.3588-2.5407 3.8c-2.0784 2.3437-3.5724 3.9366-4.3385 5.1805-1.0618 1.7215-0.83443 3.6177-1.3805 4.4899-0.32601 0.51564-0.50057 0.59171-0.6749 1.0391-0.53855 1.3578 1.4183 2.1088 0.97085 3.6105-0.71299 2.3816-6.3105 4.7479-7.054 4.3536-0.76596-0.4097-0.13654-3.6332 0.12147-4.6798 0.26535-1.0467 1.0467-2.5941 1.1225-2.6772 0.06827-0.0761 0.25032-0.44014 0.31098-0.75113 0.06054-0.3111 0.0833-1.0011 0.12136-1.3956 0.03794-0.38683 0.1972-1.0012 0.1972-1.0012s0.02276-0.12893 0.51564-1.2059c0.49315-1.0773 2.321-3.5878 3.6257-5.9846 0.85695-1.5624 1.2136-2.5103 2.0782-4.0729 0.79641-1.4335 2.1464-3.6256 2.1464-3.6256s0.57657-1.1223 0.84961-1.5397c0.27304-0.42449 0.84192-1.2362 1.3803-2.0249 0.53863-0.79652 0.67517-1.3882 1.3807-2.0403 0.58402-0.54636 0.97819-0.83458 1.7443-1.0846 1.138-0.37164 1.9115-0.16699 3.0718 0.15145 1.2136 0.33386 2.0403 0.87998 2.8216 1.5398 0.78872 0.65229 1.3727 1.3879 1.3727 1.3879l0.3791 0.55381 0.23526 0.144 0.73548 0.47024 1.6766 1.1075s3.9743 2.7076 4.1867 2.8443c0.21984 0.14411 0.92545 0.72814 1.0694 0.77366 0.144 0.0454 1.1984-1.0999 3.2764-2.5332 2.4047-1.6614 3.254-1.5324 4.0432-1.9646 0.78856-0.43218 1.1148-0.79648 1.7292-1.4183 0.93279-0.93306 0.94052-1.4259 1.9944-2.7304 1.0621-1.2971 2.0633-2.0252 2.0633-2.0252s0.144-0.144 2.0404-2.2829c1.8962-2.139 2.7304-3.7623 2.7304-3.7623l1.0466-2.0781s1.5021-3.2312 1.9874-4.5205c0.48542-1.2819 0.48542-1.7063 0.48542-1.7063s0.06788-0.33409-0.30364-0.98638c-0.37164-0.65206-0.75847-0.35611-1.4716-0.20477-1.3879 0.28823-2.222-0.07573-3.6177-0.31098-1.2741-0.21984-1.9417-0.59148-3.2235-0.81136-1.2893-0.22019-2.0556-0.43253-3.3527-0.3036-0.1972 0.02291-0.59136 0.0986-0.78856 0.16699-0.72814 0.24271-0.93279 0.30325-1.4791 0.61435-0.63688 0.29592-1.0466 0.39451-1.7445 0.4097-0.48542 0.0074-0.78087 0.02252-1.2287-0.15192-0.30329-0.11378-0.47762-0.20469-0.72814-0.42477-0.144-0.13627-0.21984-0.21984-0.33362-0.38682-0.01514-0.14411-0.06047-0.12893 0.07584-0.35646 0.12147-0.21984 0.29592-0.2579 0.29592-0.2579l0.59136-0.15145s0.83446-0.22019 0.91031-0.24271c0.07573-0.01553 0.87213-0.27331 1.2287-0.38706 0.35634-0.11378 0.74317-0.31856 0.74317-0.31856s0.2125-0.34131 0.12897-0.53855c-0.09864-0.21984-0.57622-0.24283-0.57622-0.24283s-0.66771 0.24283-0.74332 0.25801c-0.07607 0.02291-1.1301 0.35638-1.1301 0.35638s-0.84192 0.18986-1.487 0.33409c-0.65202 0.15145-1.5852 0.22753-1.5852 0.22753l-0.28026-0.07608s-0.31894-0.21215-0.37168-0.43234c-0.0454-0.1972-0.07619-0.34865-0.11374-0.57634-0.13677-0.8194-0.29595-1.3198-0.10644-2.1312 0.08345-0.34131 0.15918-0.52344 0.30364-0.84188 0.12893-0.27331 0.20466-0.41739 0.36384-0.6676l0.52344-0.83443 0.96316-1.4334c0.33397-0.34143 0.55381-0.5083 0.96351-0.73598 0.62954-0.34865 0.98588-0.44737 1.7517-0.53078 0.75882-0.08357 0.85718-0.07573 1.9343-0.3111 1.0768-0.2426 1.8354-0.67493 1.8354-0.67493s2.5788-0.94786 4.149-1.7142c1.6457-0.80375 2.3666-1.6686 4.0656-2.3361 0.72029-0.2805 1.1373-0.40947 1.881-0.59898 0.09837-0.06089 0.14411-0.12147 0.16664-0.22753 0.07608-0.27339-0.34131-0.40224-0.62954-0.37152-0.25005 0.03029-0.84192 0.28799-0.97085 0.0074-0.10594-0.23491 0.53863-0.36384 0.53863-0.36384s0.29592-0.14446 0.30329-0.3111c0.0078-0.2504-0.43995-0.09114-0.63727-0.11374-0.99337-0.10633-1.0691-0.28811-1.7669-0.46294-0.81171-0.20466-1.2594-0.44737-2.101-0.48531-0.75101-0.03029-1.4488 0.12897-1.9114 0.24271-0.4629 0.11378-0.47805-0.34108-0.29592-0.42449 1.3045-0.61435 1.3347-0.66756 2.2601-0.70561 0.5083-0.02252 1.2136 0.09126 1.2896 0.12893 0.07573 0.03806 1.0846-0.01515 1.35-0.27304 0.25778-0.26524-0.83419-0.25005-1.35-0.4551-0.47024-0.18951-1.1984-0.23498-1.1833-0.55346 0.01514-0.31106 0.3791-0.14435 0.62181-0.205 0.31098-0.07573 0.50061-0.06839 0.82674-0.11378 0.57668-0.07573 0.62954-0.12893 1.4865-0.20466 0.84988-0.07561 2.0786 0.28073 2.0786 0.28073s1.2818 0.57634 1.9187 0.87225c0.62954 0.2956 1.3879 0.44741 1.3879 0.44741s0.89512 0.12893 1.5779-0.29592c0.69012-0.43222 0.30329-0.70526 0.06058-1.0998-0.24271-0.37164-0.53863-0.89462-0.09091-1.8962 0.38682-0.87959 0.59148-1.896 0.70526-1.9872 0.12893-0.11374 0.68262 0.6676 1.0314 0.99372 1.2516 1.1757 2.9204 1.7522 4.4826 4.217 0.12897 0.19732 0.71311-0.12112 2.5336 0.1593 1.8202 0.28073 3.4053 2.2301 3.815 2.6927 0.4097 0.47024 0.94833 0.44737 0.94833 0.44737l0.87225 0.11378 3.1778 0.0532s1.4411-0.25044 2.2679 0.0532c0.58402 0.22753 2.5179 1.5169 1.6384 2.0097-0.6222 0.349-1.1985-0.40946-1.7597-0.44741-0.65241-0.04547-0.94821 0.08345-1.5323 0.22757-1.2287 0.31098-3.8756 1.1075-2.9199 1.4333 0.07573 0.02291 0.20466 0.0532 0.20466 0.0532l0.48531 0.07584s1.1531 0.26547 1.8583 0.54624c1.0621 0.41716 1.5549 0.87971 2.5409 1.4563 0.55377 0.31844 0.79648 0.64468 1.4108 0.82685 0.56126 0.16664 0.91772-0.0078 1.4867 0.0986 0.75835 0.12904 1.1832 0.28038 1.866 0.61435 1.024 0.49288 1.3956 1.0847 2.3207 1.7518 0.45509 0.31879 0.84192 0.37937 1.1832 0.82674 0.0761 0.09872 0.14411 0.14411 0.18217 0.26558 0.12112 0.40935-0.67494 0.16675-1.0998 0.0986-0.46255-0.07608-0.66755-0.31094-1.0924-0.50045-0.63687-0.29592-0.94013-0.62942-1.6306-0.7585-0.50794-0.09122-0.80386-0.01553-1.3195 0.0074-0.49327 0.02291-0.76631 0.09872-1.2669 0.10606-0.84926 0.01553-1.3347-0.06054-2.1692-0.23491-0.94075-0.19732-1.4032-0.56896-2.3437-0.75847-1.0466-0.22019-2.9204-1.1227-2.7382-0.22019 0.09126 0.43269 1.0923 0.79652 1.0923 0.79652s0.66721 0.37164 1.3196 0.65241c0.64472 0.28073 1.0011 0.70526 1.0011 0.70526l0.44787 0.34131s0.46243 0.62954 1.0539 1.3352c0.59933 0.70515 1.6384 0.68996 1.6384 0.68996s0.63722 0 1.9872 0.27308c1.3576 0.28073 2.7532 1.115 2.7532 1.115s1.0621 0.72814 1.6686 1.4488c0.62209 0.72814 0.26571 1.0998 0.18951 1.1757-0.0757 0.07561-0.0527 0.03806-0.12885 0.07561-0.0758 0.03068-0.83419-0.90984-0.83419-0.90984l-0.53863-0.47036s-0.53862-0.37152-1.2287-0.59171c-0.69008-0.21984-0.91027-0.07577-0.91027-0.07577s-1.4713 0.4097-2.7304 0.37156c-1.2666-0.03029-1.934-0.53851-1.934-0.53851l-0.80425-0.53832s-1.2057-1.1303-1.2438-0.59183c-0.03029 0.35661 0.53094 0.76631 0.53094 0.76631s0.3944 0.38671 0.64495 0.63676c0.48542 0.47808 0.68227 0.71295 1.2439 1.2136 0.55335 0.5083 0.9098 0.50092 0.9098 0.50092s0.29596 0.07577 0.40982 0.09837c0.10633 0.01515 0.31098 0.07612 0.31098 0.07612s0.18951 0.06839 1.0618 0.42449c0.87213 0.34904 1.8053 1.1152 1.8053 1.1152s0.0909 0.07573 0.21984 0.09091c0.12897 0.01514 0.39456 0.1518 0.4704 0.16699 0.0682 0.02252 0.29591 0.02252 0.79637 0.0986 0.50061 0.06804 0.31847 0.38683 0.31847 0.38683l-0.0987 0.12893-0.40919 0.28042s-0.53867 0.14407-0.91031 0.16683c-0.37164 0.01515-0.8874-0.18935-0.8874-0.18935l-1.1378-0.425s-1.1378-0.2958-1.3727-0.33351c-0.24271-0.03806-1.2668-0.24271-1.4338-0.28073-0.16652-0.03806-0.68997-0.21972-0.81905-0.29592-0.12893-0.07573-0.3944-0.12897-1.0011-0.43222-0.61435-0.29592-0.85706-0.64472-1.6233-0.88743-0.75847-0.2426-1.2209-0.29591-1.7976 0.1061-0.98615 0.68262 1.4865 0.79648 2.7308 1.4035 1.8127 0.90235 2.8363 1.5622 3.269 2.5331 0.43223 0.96312 0.87963 1.3195 0.87963 1.3195s1.2819 0.64507 1.8582 1.32c0.31098 0.36395 0.35637 0.66756 0.66747 1.0314 0.69789 0.81916 2.0706 0.78146 2.3363 1.4791 0.2579 0.65206-1.0999 0.36395-1.8128 0.29568-1.2746-0.12893-1.5853-1.2893-2.7686-1.767-0.68274-0.26558-1.1075-0.27339-1.7976-0.50045-1.2517-0.4175-1.8431-0.95582-3.0947-1.3505-0.7585-0.22753-2.1391-1.2364-1.972-0.46244 0.03806 0.18951 0.144 0.33362 0.20469 0.44741 0.05309 0.11374 0.37152 0.52356 0.37152 0.52356s0.42488 0.55323 0.61435 0.70515c0.18217 0.144 1.0016 0.75835 2.1542 1.3879 1.1529 0.63738 2.1541 1.8431 2.1541 1.8431s0.34912 0.49315 0.50841 0.84192c0.17421 0.37937 0.0531 0.50061 0.31099 1.0391 0.26523 0.53874 0.3867 0.63723 0.72813 0.96363 0.84188 0.81889 1.7292 0.65975 2.8062 1.0997 0.28799 0.12112 0.31098 0.16664 0.63727 0.50057 0.31094 0.33362-0.0607 0.48542-0.0607 0.48542s-1.1984 0.30329-1.9724 0.24271c-1.0012-0.08353-1.4485-0.39451-2.4345-0.88006-0.98599-0.47762-1.5018-1.3576-1.6002-1.4108-0.0914-0.0532-0.33409-0.31844-0.51579-0.44725-0.18998-0.12908-0.66756-0.22768-1.0998-0.34916-0.43257-0.12124-0.68274-0.14411-1.115-0.26524-0.59183-0.15926-1.2062-0.42496-1.4868-0.51575-0.28054-0.09126-0.9251-0.205-1.388 0.06792-0.93271 0.55381 1.4411 0.92545 2.1844 1.7145 0.37933 0.40201 0.53863 0.68243 0.89508 1.0999 0.27308 0.31832 0.38682 0.54597 0.72814 0.79606 0.22757 0.17468 0.6446 0.35646 0.6446 0.35646s0.57645 0.2579 1.4183 0.7208c0.83446 0.47024 1.8205 1.7674 1.8205 1.7674l0.59152 0.9098 0.35634 0.52348 0.0914 0.24271 0.12897 0.2958s0.43218 0.56127 0.74328 0.74344c0.31844 0.18947 0.26512 0.35646 0.26512 0.35646s-0.0377 0.10609-0.26512 0.23491c-0.22019 0.13677-0.33409 0.02291-0.65253-0.06839-0.31109-0.0986-0.51563-0.39405-0.7964-0.61435-0.28038-0.22757-0.5763-0.7886-1.0998-1.0997-0.44737-0.26524-1.0392-0.37168-1.2591-0.44741-0.22752-0.06839-0.78122-0.42473-1.0011-0.51575-0.22764-0.0986-0.80386-0.3565-0.80386-0.3565s-1.1227-0.62954-1.7297-0.79641c-0.61439-0.16699-0.21984 0.20458-0.21984 0.20458s0.55377 0.85718 1.0774 1.2062c0.68996 0.45517 1.653 0.85707 1.3346 1.2287-0.20466 0.24271-0.49311 0.1518-0.81893 0.11378-0.50841-0.05309-1.1305-0.66748-1.1305-0.66748s-0.2579-0.17444-1.4104-0.54608c-1.153-0.37164-0.72814 0.25786-0.47028 0.59148 0.26524 0.33397 0.61439 0.52348 0.61439 0.52348l0.78087 0.35646 0.35646 0.11378s0.3111 0.05309 1.3581 0.29592c1.0387 0.24271 1.6154 0.74332 1.6154 0.74332s0.55335 0.51564 1.3347 1.0997c0.78134 0.569 1.5627 0.72045 1.9949 0.78134 0.42488 0.0454 0.4097 0.34881 0.4097 0.34881s0.0527 0.28073 0.0377 0.37164c-0.0225 0.09079-0.11375 0.16687-0.20466 0.16687-0.0908 0-0.12893 0.03767-0.24271 0.09103-0.11378 0.06054-0.56115 0.12881-0.56115 0.12881s-1.1759-0.03806-2.0785-0.25778c-0.91015-0.21984-1.714-0.84938-1.7899-0.8874-0.07612-0.03806-0.92538-0.5083-1.502-0.69012-0.57633-0.18982-1.4866-0.11374-1.5774-0.07608-0.0986 0.03806-0.4097 0.09126-0.95582 0.24271-0.53863 0.15184 0.13677 0.34916 0.13677 0.34916l0.38683 0.03767 0.93268 0.07608s0.94798 0.11378 1.7596 0.40935c0.8194 0.29591 1.3425 0.89512 1.8811 1.4338 0.53878 0.53828 1.138 0.88731 1.138 0.88731l0.42442 0.28074 0.22019 0.16663 0.0605 0.15184s-0.0225 0.0683-0.0605 0.16711c-0.0381 0.0907-0.16699 0.16648-0.16699 0.16648s-0.20469-0.0377-0.29591-0.0377c-0.0909 0-0.69746-0.31867-1.1527-0.52348-0.47013-0.20466-0.70562-0.39452-1.2062-0.51564-0.43218-0.1064-1.0011-0.15192-1.1373-0.11378-0.12885 0.03767-1.0773 0.16652-1.8054 0.21983-0.72041 0.0605-1.3577 0.0683-2.2146-0.0377-1.2366-0.14447-2.8593-1.1154-3.0645-0.84204-0.42442 0.56115 0.87225 0.72814 1.5021 1.0921 0.85706 0.49311 2.3509 0.94797 2.3509 0.94797s1.0847 0.23526 1.7294 0.53851c1.3884 0.64473 1.8206 1.6004 2.9354 2.6166 0.62227 0.56899 1.115 0.8117 1.9568 0.93318 0.71311 0.0986 0.70527 0.0151 1.8358-0.20505 1.1375-0.22718 1.8279-1.3044 2.1537-0.9098 0.0684 0.0757 0.0381 0.144 0.0229 0.25774-0.0151 0.11379-0.11378 0.3111-0.11378 0.3111s-0.12904 0.18951-0.33362 0.39428c-0.20512 0.20493-0.986 0.62942-1.3957 0.79641-0.4097 0.17432-1.4109 0.44741-2.6777 0.40958-1.2664-0.0381-3.0263-1.0011-3.0263-1.0011l-1.2815-0.53851s-0.59932-0.28077-0.98603-0.425c-1.0621-0.40185-1.737-0.36384-2.8294-0.65229-0.67493-0.18179-1.115-0.37176-1.7294-0.50057-0.61424-0.12897-0.27292 0.11374-0.20454 0.20488 0.29591 0.38683 0.67493 0.50807 1.153 0.74344 0.64457 0.3111 1.107 0.24271 1.7672 0.52298 0.73563 0.29591 1.3729 0.7208 1.7822 0.97869 0.4097 0.25786 0.70561 0.55366 1.0997 0.97085l1.3581 1.1529s0.31052 0.25802 0.34865 0.37176c0.0454 0.1061 0.18951 0.38683 0.11378 0.83423-0.06839 0.44725-0.44737 0.12882-0.44737 0.12882l-0.34916-0.21984-0.35646-0.33386-0.57634-0.47036s-0.48531-0.44729-1.3122-0.87213c-0.84192-0.42453-1.8431-0.53828-1.8431-0.53828s-0.89512-0.12896-0.85695 0.15146c0.03767 0.28077 0.2426 0.29591 0.94786 0.47808 0.70561 0.18947 1.1682 0.53828 1.1682 0.53828s0.72814 0.53851 1.2516 1.1378c0.51568 0.59172 0.66713 1.168 0.66713 1.168s0.25786 0.48543 0.92545 1.1378c0.66756 0.65206 1.0241 0.42449 0.986 0.74316-0.03767 0.31075-0.33358 0.3718-0.33358 0.3718s-0.16699-0.0229-0.24271-0.0229c-0.07573 0-0.23537-0.0909-0.42488-0.1593-0.18951-0.0758-0.89512-0.56115-0.89512-0.56115s-1.092-0.89512-1.2286-0.98603c-0.12908-0.0912-1.1678-0.87225-1.1678-0.87225s-0.61439-0.39452-1.0621-0.61459c-0.44741-0.21984-1.0392-0.44737-1.3729-0.55346-0.33347-0.11375-0.94786-0.1518-0.94786-0.1518s-0.74328-0.11379-1.191-0.28089c-0.71295-0.2652-1.532-1.0236-1.6306-1.0616-0.09091-0.0381-0.75847-0.2579-0.88743-0.24272-0.12893 0.0152-0.42484 1.2666-0.49311 1.9797-0.31075 3.0186 0.50049 5.0209 1.7369 7.7893 1.8052 4.02 6.8112 9.0184 6.8112 9.0184s1.259 0.71295 1.7976 1.1378c1.5018 1.1755 3.9742 2.8365 6.1738 5.0286 1.8812 1.8811 4.3766 5.2182 4.3766 5.2182s1.4411 2.0177 2.1087 3.4437c0.82674 1.7518 1.4788 4.4065 1.4788 4.4065s0.0605 0.4704 0.11379 0.5615c0.0532 0.0982 0.17444 0.21215 0.27304 0.21988l0.87213 0.0303c0.0913 0 1.0774-0.0757 1.7371-0.24271 0.6523-0.1593 2.2073-0.86491 3.231-1.4109 1.0241-0.53832 2.2528-1.5775 2.2528-1.5775s0.22757-0.1972 1.4258-1.5324c1.2059-1.3346 1.9798-3.337 2.2679-4.0879 0.28077-0.75101 0.5158-2.1919 0.69793-4.657 0.1817-2.4725-0.15914-5.0896-0.15914-5.0896s-0.44788-3.6407-0.72092-4.8766c-0.27292-1.2364-0.93267-3.254-0.93267-3.254s-0.45521-1.7976-0.59921-2.9429c-0.14423-1.1377-0.17444-2.9808-0.17444-2.9808s7e-3 -1.1301 0.37164-3.2236c0.37164-2.0858 1.6531-4.179 1.6531-4.179s0.3643-0.70562 1.737-2.3591c1.4109-1.6838 1.8582-1.9567 3.2461-2.9579 1.1076-0.79649 2.5409-2.0706 3.0038-1.7748 0.50795 0.32628-0.50829 0.97834-0.84192 1.3123-0.87209 0.84937-2.4955 2.3818-3.815 4.6643-1.1378 1.9876-1.5627 3.292-1.8508 4.5892-0.28823 1.2893-0.16699 2.7074-0.12905 3.1928 0.0381 0.48554 0.30337 0.3111 0.30337 0.3111s2.7913-2.245 4.3083-3.9361c1.6384-1.8358 3.0947-5.1048 3.6636-5.1351 0.38682-0.0152 0.56849 0.8571 0.48542 1.2591-0.37168 1.6916-0.48542 1.9035-1.0318 3.0263-0.63687 1.297-1.221 1.8733-2.0932 3.0567-0.92545 1.2516-1.3727 1.7292-2.1165 3.3828-1.0618 2.3739-0.4474 4.2096-0.4474 4.2096s0.13665 1.1149 0.63726 1.0998c0.84188-0.0303 2.6773-2.3587 3.8835-4.255 0.88728-1.4031 1.2134-3.0112 1.7976-3.8531 0.52309-0.75101 0.99333 1.2136 0.7658 2.3816-0.26523 1.3728-0.94797 2.6166-2.4424 4.5661-1.4713 1.9115-1.4181 3.7241-1.4181 3.7241s-0.15914 0.82651-0.28077 2.6318c-0.11374 1.7977 0.40189 4.5358 0.40189 4.5358s0.46302 2.2753 0.55382 4.0123c0.0834 1.7367 0.0303 5.6884-1.5926 8.768-0.65242 1.2361-2.0403 2.9428-2.0403 2.9428s-1.0622 1.0921-1.9417 1.7367c-0.87225 0.63734-2.9736 1.6233-2.9736 1.6233s-1.4486 0.5083-1.6532 0.55381c-0.21238 0.0532-0.34904 0.23487-0.34904 0.23487s0.144 0.28077 0.19732 0.39455c0.0532 0.11386 0.46243 1.115 0.46243 1.115s0.43269 1.426 0.59921 2.5487c0.16711 1.1223-0.0303 1.3802-0.18951 2.245-0.15914 0.82673-0.52344 0.44002-0.60654 2.0629-0.0834 1.4336 0.56852 2.1468 0.4474 3.747-0.0532 0.70526-0.84972-0.87214-1.2287-1.5475-0.81905-1.4713-0.62209-3.7163-0.63723-4.2776-0.0225-0.56119-0.0757-1.1758-0.27304-1.881-0.25778-0.91027-0.62954-1.6307-1.0618-2.1844-0.42477-0.55381-0.87994-0.86456-1.024-0.81916-0.15918 0.0529-0.16699 0.34892-0.17437 0.50061 0 0.15145 0.29596 0.67493 0.36395 0.78879 0.0684 0.12147 0.6144 1.0998 0.6144 1.0998s0.23521 0.75835 0.33385 2.2298c0.0909 1.4714-0.35638 3.2842-0.35638 3.2842s-0.59187 2.0481-1.2137 3.2465c-0.69046 1.3347-2.2146 3.1401-2.2146 3.1401s-1.0924 1.0011-1.9115 2.647c-0.8194 1.6458-0.11379 2.3739-0.41704 2.5789-0.3111 0.21215-0.96351-0.94821-1.1378-1.737-0.15918-0.72814-0.0836-1.0694 0.2125-1.8885 0.28027-0.78919 0.94786-1.9192 0.94786-1.9192l0.986-1.6838s1.1759-2.2602 1.5475-3.9059c0.37164-1.6384-0.0459-3.459-0.0459-3.459s-0.0527-0.59886-0.46244-0.57622c-0.4097 0.0229-0.70526 0.38683-0.87225 0.82674-0.34143 0.89512 0.13631 0.73586-0.37937 2.2376-0.40197 1.1832-0.51575 1.0236-0.72813 1.7215-0.25798 0.84188-0.39429 1.7067-0.37176 2.2303 0.0151 0.52298-0.27293 0.30326-0.27293 0.30326s-0.49276-0.94064-0.49276-2.101c0-0.62954 0.0225-0.98599 0.0909-1.6081 0.12147-1.0164 0.53082-2.5638 0.53082-2.5638s0.44776-1.5243 0.34131-2.9277c-0.0986-1.3954-0.59136-1.6532-0.59136-1.6532s-0.12159-0.18985-0.66022-0.15964c-0.546 0.0381-0.52313 1.009-0.52313 1.009s-0.15914 1.3806-0.37152 2.2376c-0.59933 2.3816-1.388 3.6255-2.7988 5.6352-1.2741 1.8053-3.0038 3.3905-3.8682 4.1415-0.86491 0.75077-3.5119 2.685-3.5119 2.685l-3.102 2.0707s-1.2443 1.1984-1.8128 2.6318c-0.56896 1.4259-0.53129 2.5482-0.20516 3.8605 0.3264 1.32 0.80437 1.9266 1.0545 2.2907 0.2504 0.36395 0.72814 1.0085 0.88728 1.7596 0.09864 0.47024 0.02291 0.75101 0.05324 1.2287 0.02291 0.41692 0.07561 0.64457 0.06839 1.062-0.0078 0.65979 0.11374 1.1225-0.2579 1.6684-0.28823 0.4097-1.0319 0.7587-1.0319 0.7587s-0.84188 0.37913-1.3425 0.68243c-5.2938 3.2011-7.175 5.2639-10.148 8.821-0.94833 1.1378-0.2579 1.0696-1.2746 2.4121-0.60655 0.81159-2.0173 0.80375-2.5408 1.7673-0.70526 1.3045 1.6159 2.5941-1.0696 3.7545-3.4435 1.4943-9.3824 0.42485-9.4961-0.038-0.32578-1.2893 1.153-2.7607 1.6766-3.3374 2.4193-2.6392 4.5812-2.7075 5.3699-4.892 0.16699-0.47024 0.10606-0.86475 2.0252-2.2907 1.3577-1.0086 6.7578-5.0667 9.1092-7.782 0.81167-0.92546 1.5091-1.5398 1.8582-2.5484 0.34865-1.0162-0.3565-1.6535-0.3565-1.6535l-0.96347-1.5778-1.8583-3.322s-0.77353-1.7521-1.2058-2.7761c-0.42473-1.0164-1.2438-3.7619-1.2438-3.7619s-0.59183-2.4573-0.69792-4.0577c-0.18213-2.89 0.21984-4.5661 0.97823-7.3574 0.97865-3.6407 3.2085-5.1575 4.0959-8.7451 0.25778-1.0469 0.31883-2.8367-0.21234-2.7532-0.50806 0.0835-0.54601 1.5017-0.9251 2.4573-1.4338 3.5651-3.3374 5.1274-4.3688 8.8286-0.69792 2.4955-0.97869 3.9821-0.97869 6.5689 0.0078 1.4865-0.05309 1.2134 0.33374 3.7846 0.13666 0.95571 0.37925 1.4638 0.6601 2.3813 0.19685 0.66026 0.73552 1.889 0.73552 1.889s0.74328 1.6306 0.99384 2.7759c0.08342 0.38671 0.17421 0.61424 0.15134 1.0088-0.0454 0.68274 0.06839 0.82674-0.26512 1.4411-0.40201 0.76581-0.15192 1.221-1.4563 1.5018-1.1604 0.25017-3.5347-0.52348-3.5347-0.52348s-9.7462-2.958-15.974-2.1083c-1.2361 0.16664-1.8885 0.61436-3.1401 0.59921-1.1223-0.0155-1.699-0.89512-2.8213-0.5615-0.23533 0.0684-0.31094 0.22764-0.5083 0.36419-1.6536 1.1526-0.39416 3.064-4.7326 2.0629-2.6777-0.60666-5.9087-2.2371-5.3398-3.269 0.74328-1.3577 1.7518-1.5852 3.8531-2.4496 2.2524-0.91799 5.643-0.65241 6.3028-0.70561 0.81893-0.0606 1.9871-0.62954 3.436-0.65206 2.5179-0.0459 2.973 0.25005 2.973 0.25005l4.2702 0.37949 8.1688 0.0986s1.464-0.11379 2.0481-0.22753c0.58402-0.10633 1.0543-1.2668 1.3727-1.8129 0.3111-0.53851-0.0078-1.3502-0.0078-1.3502l-0.25017-0.38671-0.77353-1.2516-1.4411-2.4194-1.5929-3.1781s-1.0466-2.2147-1.6005-3.6784c-0.5537-1.4411-0.87213-2.2605-1.2438-3.7546-0.38671-1.5474-0.61439-2.7986-0.65975-4.0274-0.06839-1.7751-0.18217-3.1704 0.31844-4.6267" fill="#231f20"/>
			<g fill="#fff">
				<path d="m126 141.35c1.7142-2.2147 1.8812-4.2625 1.9871-7.1524 0.0762-2.101-0.72033-5.3398-0.72033-5.3398l-0.10641-0.23487s-0.30325-0.38683-0.48542 0.12893c0.0229 0.45509 0.0834 0.81905 0.0834 0.81905l0.10656 4.1718s-0.13677 2.101-0.84972 4.2702c-1.2058 3.6407-4.3992 5.2786-4.8768 6.5909-0.78134 2.1921 2.8063-0.59917 4.8616-3.2539"/>
				<path d="m107.96 148.09s-0.70561 0.19685-0.72068 0.89478c-0.0151 0.69781 0.17471 1.2971 0.15172 2.1316-0.0151 1.0694-1.0011 2.3056-0.36418 2.7075 1.0846 0.69047 2.0178-4.1563 1.6838-4.8768-0.32578-0.72076-0.6446-0.86475-0.75066-0.85707"/>
				<path d="m95.826 181.69s-0.205-0.10605-0.59921 0.0381c-0.39452 0.14411-0.36418 0.55393-0.36418 0.55393s-0.07584 0.42438 0.2426 0.47758c0.3111 0.0454 0.83458-0.72041 0.83458-0.81167-0.0078-0.0909-0.11378-0.25778-0.11378-0.25778"/>
				<path d="m84.403 189.8s-0.12163 0.12147-0.01515 0.20458c0.09856 0.0835 0.25001-0.0224 0.25001-0.0224s1.9719-1.5398 3.1401-2.6322c1.2439-1.1603 3.0038-3.1554 3.0038-3.1554s0.12897-0.15146-0.0078-0.28038c-0.1367-0.12882-0.48535 0.0684-0.75839 0.20477-0.25044 0.12147-0.38671 0.26558-0.56888 0.41707-0.18213 0.15181-0.75847 0.75101-0.75847 0.75101l-1.532 1.4865-0.94832 0.8874-0.93283 0.90246-0.39451 0.44006s-0.10606 0.17433-0.12893 0.22019c-0.03029 0.0455-0.13631 0.18179-0.13631 0.18179s-0.13674 0.13665-0.13674 0.17467c0 0.0303-0.0454 0.068-0.0454 0.12124-0.0078 0.0381-0.03029 0.0986-0.03029 0.0986"/>
				<path d="m80.99 192.04s-0.2203-0.1742-0.55381 0c-0.32624 0.17445-0.69008 0.637-0.7208 0.6902-0.03029 0.0531-0.21188 0.30329-0.08307 0.52348 0.12124 0.21235 0.54597-0.10644 0.61435-0.11378 0.06058-8e-3 0.60655-0.44787 0.60655-0.44787s0.32617-0.20466 0.13677-0.65203"/>
				<path d="m74.459 198.66s-0.27304-0.53113-0.6446-0.31094c-0.37176 0.21984-0.56896 0.28811-0.90258 0.75066-0.0532 0.0835-0.41704 0.55366-0.48542 0.66744-0.06827 0.12905-0.42484 0.81171 0.30329 0.84973 1.2668 0.0831 0.43991-0.73595 0.87209-1.0469 0.35661-0.25017 1.009-0.18182 1.0164-0.44003 0.01553-0.25778-0.15914-0.46993-0.15914-0.46993"/>
				<path d="m52.092 172.25s-0.75835 0.1817-0.81167 0.4474c-0.0532 0.26559 0.44003 0.53083 0.52309 0.53863 0.08357 0.0152 0.25836 0.21239 0.75885-0.12159 0.50057-0.34876 0.4777-0.63687 0.4777-0.63687s0.29595-0.34132-0.94798-0.22757"/>
				<path d="m64.402 171.84s-0.0078-0.27304-0.55366-0.24271c-0.53867 0.0303-0.65253 0.12897-0.66771 0.21238-0.01515 0.0836 0.02291 0.21984 0.51575 0.2579 0.48542 0.0455 0.68274 0 0.70561-0.22757"/>
				<path d="m76.022 172.18c-0.97866-8e-3 -0.65975 0.0229-1.2668 0.0532-1.0921 0.0605-1.6912 0.0151-2.7686-0.0609-1.5095-0.0987-3.8531-0.47769-3.8531-0.47769s-0.29556-0.0606-0.40935 0.12893c-0.11374 0.18213 0.28042 0.59136 0.63692 0.70514 1.9113 0.59183 2.01 0.48554 3.3296 0.50842 0.72076 7e-3 1.1305-0.0606 1.8509-0.11379 0.91765-0.0605 1.3502 0.0835 2.3436-0.18213 0.25786-0.0683 0.50841-0.55381 0.13674-0.56115"/>
				<path d="m82.575 170.23s-0.18998-0.21972-0.59183-0.0225c-0.40935 0.19732-0.65206 0.63688-0.65206 0.63688s-0.18986 0.29596 0.21203 0.24271c0.39463-0.0454 0.75101-0.21972 0.84973-0.27292 0.0986-0.0607 0.38682-0.33358 0.18213-0.58414"/>
				<path d="m76.871 91.6s2.7763-2.5941 4.7483-6.0146c1.1832-2.0404 1.6911-6.8038 0.68262-5.6128-0.4551 0.53832-1.0015 3.0109-1.8812 4.8314-1.2516 2.6014-3.9136 6.2803-3.9136 6.2803s-0.56896 1.2286 0.36384 0.51568"/>
				<path d="m65.82 98.184s-0.30329 0.22753-0.16664 0.59917c0.13631 0.37937 0.70526 0.09079 0.70526 0.09079s1.2741-0.47758 2.6166-0.53082c1.3425-0.06054 3.2085 0.34143 3.2085 0.34143s0.88732 0.25044 1.0392 0.30318c0.144 0.05332 0.62942 0.29592 0.70526 0.3189 0.08342 0.03029 0.53851 0.25778 0.79641 0.02252 0.25786-0.23491-1.6155-1.934-3.5347-2.1918-3.1777-0.43269-5.2712 0.93279-5.2712 0.93279l-0.09872 0.11378"/>
				<path d="m52.684 109.41c0.23533 0.18986 1.3044-1.8354 2.1922-3.1172 0.65206-0.94052 1.843-2.5106 1.843-2.5106s0.53094-0.72041-0.37925-0.31844c-0.37176 0.16652-1.3807 0.93283-2.0932 2.3509-0.60701 1.1985-1.7904 3.4058-1.5628 3.5953"/>
				<path d="m45.327 100.6s-0.22757 0.78134 0.68996 1.7673c0.92545 0.98615 1.1682 1.7976 1.7522 1.2137 0.1593-0.1593-0.57668-1.4944-0.95566-1.8583-0.37168-0.3643-0.65241-0.67524-0.65241-0.67524l-0.23491-0.19685-0.3111-0.1671-0.17433-0.0683s-0.05332-0.0455-0.11374-0.0151"/>
				<path d="m42.346 93.072s-0.99384 0.18217-1.2439 0.66748c-0.24271 0.48554 1.153 0.18959 1.153 0.18959s0.91765 0.05324 0.94017-0.30337c0.02291-0.35638-0.11343-0.39451-0.84926-0.55369"/>
				<path d="m26.516 119.31c-0.50818-0.1518-0.59164 0.84938-0.6599 1.1678-0.06078 0.32616 0.22757 0.97857 0.34131 0.97073 0.12124 0 0.52337-0.63676 0.54612-0.94786 0.02276-0.3111 0.21996-1.0544-0.22753-1.1907"/>
				<path d="m42.952 138.85s-0.90996-0.72044-1.0466-0.43222c-0.13631 0.28031 0.75101 1.5471 0.75101 1.5471s0.2652 0.41704 0.6902 0.22019c0.4097-0.18986 0.25778-0.64507 0.25778-0.64507s-0.27296-0.59137-0.65241-0.68997"/>
				<path d="m36.096 117.71s-0.2351-0.0529-0.31856 0.22764c-0.09103 0.27343-0.07584 0.73587-0.13666 1.2818-0.05297 0.43222 0.10633 1.5778 0.10633 1.5778s0.09103 0.91007 0.27304 1.4563c0.19708 0.59164 0.72045 1.4335 0.72045 1.4335s0.19732 0.43222 0.44003 0.40958c0.23514-0.0151 0.18202-0.30325 0.18202-0.30325s-0.75858-3.0263-0.7888-3.3374c-0.08357-1.0012-0.07584-2.2298-0.07584-2.2298l-0.01518-0.18213s-0.0076-0.31844-0.38682-0.33397"/>
				<path d="m37.279 108.48s-0.41716-0.0832-0.80398 0.72813c-0.38682 0.81159-0.30353 1.1455-0.27304 1.1832 0.03033 0.0381 0.34131 0.0229 0.83419-0.72813 0.48554-0.75078 0.37937-1.0316 0.37937-1.0316s-0.03037-0.15168-0.13654-0.15168"/>
				<path d="m48.815 116.84s0.5083 0.75835-0.46243 0.5763c-0.97085-0.17433-3.0113-1.7747-3.838-2.2069-0.82674-0.43269-2.1692-0.57664-1.6082-1.0772 0.09872-0.0909 0.12904-0.17444 0.29592-0.18167 0.1671-8e-3 0.72045 0.21188 0.75858 0.23487 0.03029 0.0152 1.4713 0.60655 1.5245 0.62954 0.04551 0.0151 0.85707 0.35649 1.4259 0.69781 0.57634 0.34131 1.5096 0.99372 1.5096 0.99372l0.39405 0.33362"/>
				<path d="m75.703 139.99c0.25778 0.83458-3.0641-1.7595-4.8466-3.125-4.7176-3.6407-10.497-11.089-9.7768-11.748 0.59917-0.54631 2.9658 2.8668 6.4394 6.6213 3.7091 4.0124 8.0247 7.7593 8.1839 8.2522"/>
				<path d="m89.584 136.43c-1.0319 1.0998-1.3957 2.5102-0.80433 3.5646 0.58414 1.0162 0.76627-1.4939 1.4109-2.245 0.55381-0.64472 0.89524-0.54613 1.8128-1.1907 1.5628-1.1075-1.1148-1.5324-2.4193-0.12897"/>
				<path d="m83.667 112.91c-0.69792-0.11374-0.68262 0.96351-0.57633 1.7294 0.47028 3.4208 2.0023 6.0526 4.0504 8.533 1.2439 1.5168 4.6722 4.2097 5.0663 3.7774 0.14446-0.15964-3.2535-2.7837-5.4154-6.1592-1.5319-2.3891-2.3513-4.422-2.5482-6.3939-0.02291-0.2502 0.03767-1.3802-0.57668-1.4866"/>
				<path d="m70.44 62.239c-1.5397 0.83454-4.2173 1.5627-4.2173 1.5627s-0.12124 0.27304 0.22023 0.24271c2.2904-0.18213 3.1626-0.47797 4.3838-1.0089 1.221-0.53082 2.1087-1.9946 2.1087-1.9946s0.49288-0.90281-0.42484-0.15949c-0.28799 0.23537-1.2287 0.89512-2.0707 1.3576"/>
				<path d="m89.03 56.362s-0.52344-0.12159-0.87994 0.10594c-0.34877 0.22019-0.24271 0.39463-0.24271 0.39463s0.53863 0.42477 0.92545 0.48531c0.39451 0.0607 1.2287 0.425 1.1906 0.13631-0.03029-0.2803-0.50061-0.79606-0.65975-0.94052-0.1593-0.13627-0.33362-0.18166-0.33362-0.18166"/>
				<path d="m80.285 72.418c0.08353 0.18205 1.6461-0.25017 2.2454-0.58414 0.47762-0.26524 0.65979-1.1525 0.65979-1.1525s0.12881-0.85722-0.07623-0.5236c-0.8874 1.4563-2.9199 2.0706-2.829 2.2603"/>
				<path d="m80.224 68.406c0.63726-1.2059-1.7292 1.2593-2.9354 1.8962-0.72814 0.38682-1.926 0.90246-1.926 0.90246s-0.3189 0.39451 0.12881 0.3643c0.43968-0.03806 1.5624 0.34881 2.4726-0.35646 0.20458-0.16699 1.1604-1.5472 1.1604-1.5472s0.80375-0.68274 1.0997-1.2593"/>
				<path d="m79.868 73.564c0.04536 0.19697 2.7 0.12897 3.3598-0.06823 0.52348-0.15196 0.80433-1.0773 0.80433-1.0773s0.31844-0.80398 0.0454-0.53094c-1.1984 1.2214-4.255 1.4715-4.2095 1.6765"/>
				<path d="m37.325 97.82s-0.40212-0.14446-0.89501 0.60655c-0.50061 0.74317-2.7305 4.1261-2.3286 4.6267 0.46278 0.59186 2.3969-3.0263 2.9885-3.7013 0.58391-0.67494 0.34892-1.3727 0.34892-1.3727s0-0.15192-0.11378-0.15914"/>
				<path d="m85.882 158.88c-0.23487 1.1223 0.05324 3.4205 0.425 3.8757 0.94821 1.1378 0.37925-1.7747 0.5083-2.8062 0.11378-0.95571 0.23491-1.2818 0.70515-2.306 0.84192-1.8355-1.1378-1.1602-1.6384 1.2366"/>
				<path d="m77.751 61.018s-0.73594 0.01515-1.3122 0.34131c-0.57618 0.31106-0.72814 0.75074-0.72814 0.75074s-0.11374 0.32617-0.03029 0.5083c0.16687 0.38682 0.9557-0.20466 1.5167-0.0078 0.45517 0.15953 0.65975 0.28846 1.009 0.69781 0.29545 0.36418 0.82674 0.87994 1.1604 0.59171 0.33351-0.29592 0.20466-1.0241 0.20466-1.0241s-0.38682-1.1984-0.90258-1.5397c-0.50783-0.34131-0.91765-0.31844-0.91765-0.31844"/>
				<path d="m65.54 69.438s-0.4097 0.06804-0.31106 0.56119c0.09872 0.49276 0.3638 0.41704 0.3638 0.41704s0.84988-0.3565 0.79652-0.87947c-0.05309-0.50841-0.84926-0.09875-0.84926-0.09875"/>
				<path d="m59.578 66.768s-0.44003 0.01515-0.7585 0.56853c-0.31106 0.55381-0.49311 1.1227-0.49311 1.1227s-0.15157 0.72814 0.11378 0.95566c0.26559 0.22768 0.54632-0.47012 0.92545-0.74316 0.22007-0.15918 0.36418-0.23526 0.59183-0.39451 0.3257-0.21984 0.84192 0.0532 0.80375-0.59152-0.03806-0.64457-0.73583-0.95566-1.1832-0.91765"/>
				<path d="m78.843 59.828s-1.0163-0.14435-0.97819 0.24287c0.03767 0.3638 0.5537 0.15134 0.88732 0.29545 0.31844 0.14411 0.53082 0.1972 0.78868 0.44003 0.18998 0.16687 0.16699 0.50045 0.39451 0.50045 0.33362 0.0078 0.26524-0.12112 0.26524-0.12112s-0.29556-0.87225-0.6749-1.1228c-0.37902-0.25028-0.68266-0.23491-0.68266-0.23491"/>
				<path d="m90.168 63.916c-0.1518 0.54608-0.2426 0.74332-0.2426 0.74332s-0.28089 1.1228 0.84926 0.70526c1.13-0.41719 0.54597-0.23502 1.3577-0.62954 0.81155-0.40201 0.78856-0.18217 1.3804-0.15149 0.20466 0.0074 0.32624 0.01515 0.62954-0.04586 0.25005-0.05274 0.15192-0.35634-0.42488-0.50779-0.61435-0.1671-1.365-0.12908-2.245-0.13677-0.50842 0-1.1604-0.52313-1.3045 0.02291"/>
				<path d="m90.66 59.767s-0.52344-0.11378-0.87213 0.1064c-0.35646 0.21984-0.2504 0.3942-0.2504 0.3942s0.53851 0.42473 0.93318 0.48542c0.38667 0.06089 1.2208 0.42473 1.1832 0.14396-0.03029-0.28807-0.50057-0.80375-0.6601-0.94002-0.1593-0.14446-0.33374-0.18998-0.33374-0.18998"/>
				<path d="m92.663 67.557s-0.56127-0.11378-0.94052 0.09872c-0.37914 0.21238-0.26535 0.37902-0.26535 0.37902s0.57634 0.40197 0.99349 0.45506c0.41739 0.05324 1.312 0.39455 1.2745 0.12897-0.03806-0.27308-0.53867-0.7585-0.70565-0.89477-0.17444-0.12897-0.35646-0.16699-0.35646-0.16699"/>
				<path d="m92.822 70.378s-0.58368-0.12124-0.98588 0.11378c-0.40201 0.24283-0.28054 0.44003-0.28054 0.44003s0.60666 0.4551 1.0466 0.51575c0.44003 0.06827 1.3879 0.46278 1.3503 0.15169-0.03806-0.30314-0.56884-0.86464-0.75101-1.0161-0.18217-0.1593-0.37948-0.20516-0.37948-0.20516"/>
				<path d="m93.088 73.139s-0.63723-0.1518-1.0694 0.12124c-0.43234 0.27304-0.30337 0.48542-0.30337 0.48542s0.66756 0.52344 1.1453 0.59921c0.47012 0.07608 1.4942 0.51564 1.4488 0.17479-0.03806-0.34927-0.61439-0.98638-0.80425-1.1608-0.19732-0.17444-0.41704-0.21984-0.41704-0.21984"/>
				<path d="m93.027 76.544s-0.63723-0.14411-1.0694 0.12893c-0.43222 0.26559-0.30329 0.48542-0.30329 0.48542s0.65975 0.51602 1.1375 0.59175c0.47808 0.07573 1.5021 0.51564 1.4563 0.16699-0.03767-0.34131-0.61435-0.97858-0.80398-1.153-0.1972-0.17421-0.41704-0.22007-0.41704-0.22007"/>
				<path d="m92.557 83.181s-0.63723-0.14411-1.0694 0.12159c-0.4323 0.27292-0.30325 0.49276-0.30325 0.49276s0.66709 0.51564 1.1374 0.59171c0.47805 0.07584 1.5021 0.52325 1.4641 0.17448-0.04551-0.34916-0.6222-0.98603-0.81155-1.153-0.19735-0.17432-0.41719-0.22753-0.41719-0.22753"/>
				<path d="m92.997 79.851s-0.74332-0.15926-1.2439 0.15184c-0.49323 0.31071-0.349 0.56115-0.349 0.56115s0.77353 0.59921 1.32 0.69008c0.54601 0.08345 1.7366 0.59921 1.6834 0.1972-0.0454-0.40185-0.71264-1.1377-0.94017-1.3347-0.22019-0.205-0.47024-0.26558-0.47024-0.26558"/>
				<path d="m92.246 86.177s-0.52348-0.12112-0.88009 0.10656c-0.35646 0.21972-0.25005 0.39405-0.25005 0.39405s0.546 0.42484 0.93279 0.49323c0.39455 0.06058 1.2439 0.42449 1.2062 0.13631-0.03806-0.28042-0.5083-0.80386-0.66756-0.94798-0.1671-0.144-0.34131-0.18217-0.34131-0.18217"/>
				<path d="m91.753 89.052s-0.43257-0.09837-0.73583 0.09114c-0.29591 0.18217-0.20466 0.33362-0.20466 0.33362s0.45517 0.34912 0.78087 0.40201c0.3189 0.05309 1.0241 0.35646 0.99384 0.12147-0.03029-0.23526-0.42488-0.67493-0.55381-0.78872-0.12893-0.12159-0.28042-0.15953-0.28042-0.15953"/>
				<path d="m91.139 91.676s-0.39451-0.09091-0.66744 0.07608c-0.25801 0.16675-0.18217 0.30325-0.18217 0.30325s0.4097 0.31856 0.69781 0.36395c0.29592 0.04551 0.92545 0.31879 0.90246 0.10644-0.03029-0.2125-0.37902-0.6069-0.50061-0.71299-0.12101-0.10652-0.25005-0.13673-0.25005-0.13673"/>
				<path d="m90.509 93.823s-0.39416-0.09126-0.65975 0.08318c-0.26524 0.16687-0.18217 0.29595-0.18217 0.29595s0.4097 0.31832 0.69792 0.36418c0.2958 0.05274 0.92545 0.32578 0.89501 0.10606-0.02291-0.2125-0.37937-0.59932-0.49311-0.71307-0.12124-0.0986-0.2579-0.13631-0.2579-0.13631"/>
				<path d="m89.765 96.318s-0.31844-0.06804-0.5309 0.06839c-0.21972 0.12893-0.15138 0.24271-0.15138 0.24271s0.3257 0.25774 0.56103 0.2958c0.24271 0.03806 0.75066 0.2579 0.72814 0.08353-0.02291-0.17468-0.31094-0.49311-0.40185-0.57665-0.09872-0.09091-0.20504-0.11378-0.20504-0.11378"/>
				<path d="m88.871 98.654s-0.27296-0.06054-0.46282 0.0532c-0.18178 0.11378-0.12893 0.21238-0.12893 0.21238s0.28077 0.21984 0.48542 0.25005c0.20504 0.03806 0.6446 0.22757 0.62942 0.07584-0.02252-0.15145-0.26512-0.42449-0.34865-0.49288-0.08357-0.07573-0.17444-0.0986-0.17444-0.0986"/>
				<path d="m87.945 100.88s-0.27292-0.0609-0.4629 0.0529c-0.18947 0.11378-0.12881 0.20488-0.12881 0.20488s0.28065 0.22769 0.48531 0.25802c0.20516 0.0303 0.64507 0.21984 0.63 0.0756-0.02291-0.15169-0.2657-0.42473-0.34923-0.49277-0.08346-0.0761-0.17436-0.0986-0.17436-0.0986"/>
				<path d="m27.942 112.16s-0.47024 0.9025-0.23522 1.3953c0.22753 0.49323 0.84961-0.7886 0.84961-0.7886s0.64468-1.2742 0.3791-1.5096c-0.26535-0.23486-0.41704 0.425-0.99349 0.90293"/>
			</g>
		</g>
		<g fill="#231f20">
			<g>
				<path d="m93.186 227.23v-1.7445c0-3.9595 1.9949-4.7253 7.8425-4.7482 5.3777 0.0152 7.2662 0.69793 7.2662 4.1111v13.16h1.9949v2.9654l-13.137 8e-3c-2.7763 0-4.5739-1.8964-4.5739-4.24v-2.6625c0-2.3055 1.1832-4.3155 5.2869-4.3307h5.1346v-4.0123c0-2.0935-0.144-2.3436-2.2372-2.3436h-0.0303c-2.5184 7e-3 -2.6699 0.32613-2.6699 2.3436v1.4943zm6.0829 4.7253c-1.0241 0-1.6384 0.83423-1.6384 1.8583v2.5482c0 1.024 0.43269 1.8356 1.6384 1.8585h1.8509c1.0237 0 1.8582-0.31879 1.8582-1.8585v-4.3992h-1.7444c-0.038 0-1.9647-7e-3 -1.9647-7e-3"/>
				<path d="m80.694 225.69v-4.6043h-7.3269v2.7383h1.9568v14.176h-1.9568v2.9731h9.1699v-2.9731h-1.843v-7.5924c0-0.713 4.3156-6.1666 4.3156-5.5292v7.5391h5.0745v-8.4871c0-1.9494-1.2668-3.201-3.5879-3.201-2.7456 0-4.6115 3.4589-5.8021 4.9606"/>
				<path d="m139.08 237.99v-16.907h-7.4712v2.7383h2.0935v14.168h-2.0935v2.9806h9.4354v-2.9806h-1.9642"/>
				<path d="m61.846 225.69v-4.6043h-7.3269v2.7383h1.9491v14.176h-1.9491v2.9731h9.1699v-2.9731h-1.843v-7.5924c0-0.713 4.3082-6.1666 4.3082-5.5292v7.5391h5.0818v-8.4871c0-1.9494-1.2666-3.201-3.5878-3.201-2.7456 0-4.6115 3.4589-5.8021 4.9606"/>
			</g>
			<path d="m51.713 234.47h-5.1349v1.4939c0 2.0178-0.33362 2.1088-2.8443 2.1313h-0.03767c-2.8671 0.0154-2.7006-0.27304-2.6777-2.1313v-3.5421h10.695v-7.6759c0-2.7833-2.1009-3.9439-7.6377-3.9665h-0.79652c-5.9767 0.0225-7.5695 1.3802-7.5695 4.8314v11.24c0 3.7773 2.2374 4.4147 7.6833 4.5587h0.59183c5.9462-0.12896 7.7287-0.53128 7.7287-4.0734zm-10.634-9.4354c0-1.0469 0.3111-1.5701 1.5094-1.5779h2.2528c0.9406 8e-3 1.4637 0.41716 1.4637 1.1604v5.7572h-5.2259v-5.3397" fill-rule="evenodd"/>
			<g>
				<path d="m133.66 213.4h5.4305v3.5953h-5.4305v-3.5953"/>
				<path d="m119.6 225.69v-4.6043h-7.3269v2.7383h1.9568v14.176h-1.9568v2.9731h9.1698v-2.9731h-1.8429v-7.5924c0-0.713 4.3081-6.1666 4.3081-5.5292v7.5391h5.0814v-8.4871c0-1.9494-1.2663-3.201-3.5874-3.201-2.7382 0-4.6038 3.4589-5.8021 4.9606"/>
				<path d="m29.3 231.31v-2.6547h-2.8593v9.352h4.9453v2.9654h-14.51v-2.9654h3.8683v-21.002h-3.0338v-3.6182h113.03v3.6182h-104.3v8.434h2.8593v-2.4952h3.2843v8.366h-3.2843"/>
			</g>
		</g>
	</g>
</svg>
