<svg width="341.36" height="128" version="1.1" viewBox="0 0 90.317 33.867" xmlns="http://www.w3.org/2000/svg">
	<g>
		<path d="m45.158 5.9621e-7c-25.066 0-45.158 7.5132-45.158 16.933 0 9.3624 20.258 16.934 45.158 16.934 24.901 0 45.159-7.5966 45.159-16.934 0-9.337-20.258-16.933-45.159-16.933" fill="#003478"/>
		<g fill="#fff">
			<path d="m62.946 20.52c0.01212 0.07756 0.11391 0.15188 0.21247 0.18702 0.03635 0.01212 0.05413 0.03635 0.01616 0.11876-0.28114 0.6027-0.53969 0.95016-0.89216 1.4739-0.32436 0.48387-0.68959 0.86142-1.1317 1.2246-0.66701 0.55193-1.5933 1.1527-2.3591 0.74884-0.34011-0.17652-0.4873-0.65259-0.48072-1.038 0.01616-1.0837 0.49829-2.1964 1.3885-3.2898 1.0853-1.3362 2.2851-2.0292 3.0725-1.6504 0.81469 0.38858 0.55472 1.3318 0.18985 2.0722-0.02828 0.05736-0.02828 0.10583-0.01616 0.15268m8.7424-8.4442c0.05857-0.10341-0.0031-0.17894-0.1337-0.17894-0.68046 0-1.5733 0.0015-2.2823 0.0015-0.16884 0-0.25609 0.0202-0.33567 0.17773-0.26175 0.5014-3.451 5.2811-4.0446 6.2093-0.10018 0.14138-0.22216 0.12158-0.2363-0.04039-0.06019-0.55128-0.53626-1.185-1.2864-1.4883-0.57164-0.23186-1.1305-0.27386-1.7115-0.19671-1.049 0.14097-1.9835 0.69427-2.805 1.3183-1.2383 0.94136-2.3067 2.1615-3.6859 3.0631-0.75288 0.49077-1.784 0.91882-2.4739 0.27992-0.62435-0.57887-0.55379-1.8646 0.40151-2.859 0.10058-0.10421 0.22135-0.01616 0.20237 0.07634-0.09008 0.44969 0.0202 0.89688 0.36192 1.2105 0.41673 0.37364 1.0132 0.4158 1.5237 0.16642 0.60238-0.2985 0.95642-0.87487 1.0596-1.529 0.15955-1.0148-0.62153-1.9097-1.599-1.9816-0.794-0.05574-1.5554 0.22055-2.2973 0.8329-0.37202 0.3086-0.58328 0.53654-0.905 0.99407-0.07836 0.1127-0.19873 0.12401-0.1951-0.04241 0.03635-1.2992-0.50047-2.0302-1.5745-2.054-0.83379-0.0202-1.7244 0.43241-2.4187 0.98591-0.76104 0.61119-1.4265 1.4211-2.1399 2.1822-0.08886 0.09371-0.16602 0.08927-0.19106-0.0925-0.0202-0.86081-0.23792-1.6946-0.63627-2.2867-0.14097-0.206-0.43774-0.30779-0.68704-0.16884-0.11512 0.06301-0.51554 0.2472-0.80717 0.48197-0.14461 0.11916-0.20116 0.29164-0.13693 0.51271 0.38454 1.286 0.30012 2.7483-0.22176 3.9832-0.47914 1.1311-1.4102 2.1512-2.5046 2.4964-0.72093 0.22862-1.4704 0.11674-1.9342-0.52244-0.63692-0.8821-0.37969-2.4162 0.56978-3.69 0.83787-1.1217 2.0499-1.8342 3.2588-2.2929 0.14218-0.05493 0.17167-0.14622 0.13128-0.267-0.06544-0.19873-0.17046-0.46945-0.21287-0.59297-0.11108-0.29527-0.42146-0.34294-0.80059-0.30174-0.87839 0.10219-1.6708 0.40312-2.4535 0.82224-2.0496 1.0976-3.0772 3.2218-3.5275 4.3582-0.21691 0.54595-0.40231 0.8865-0.64192 1.1885-0.32314 0.40611-0.72877 0.77583-1.4704 1.4272-0.06705 0.05978-0.11714 0.18419-0.06059 0.30012 0.07554 0.15672 0.46129 0.7015 0.57011 0.7501 0.12078 0.05938 0.26094-0.02423 0.31708-0.06382 0.51897-0.35182 1.1399-0.90941 1.4437-1.2876 0.10664-0.12966 0.2161-0.07513 0.27265 0.12158 0.28356 1.0116 1.0261 1.8376 2.0528 2.1832 1.8793 0.63377 3.8286-0.28356 5.2999-1.8806 0.9351-1.0151 1.2725-1.668 1.6309-2.1117 0.60743-0.7526 1.8056-2.4362 3.2328-3.5172 0.52337-0.39868 1.1427-0.70276 1.4541-0.50079 0.25003 0.16198 0.33082 0.53844-0.07028 1.2678-1.4551 2.657-3.5959 5.7788-3.9885 6.5358-0.0719 0.13128-0.0081 0.23468 0.12845 0.23468 0.76141-0.0038 1.5162-0.0019 2.2074-0.0019 0.11512-4e-3 0.16642-0.05817 0.22418-0.13936 1.1167-1.7479 2.1675-3.4115 3.2939-5.1315 0.06301-0.10139 0.12118-0.02424 0.1236 0.0202 0.02423 0.39908 0.12118 0.94483 0.35828 1.3033 0.42582 0.66261 1.0292 0.94734 1.6984 0.9517 0.53246 0.0081 0.80184-0.07473 1.376-0.28921 0.46722-0.17328 0.84227-0.4007 1.1302-0.6065 0.16804-0.11714 0.19752 0.07877 0.19348 0.10866-0.25852 1.3876 0.06059 3.0318 1.4397 3.7135 1.6504 0.81376 3.4635-0.33001 4.5068-1.3625 0.10219-0.09937 0.21166-0.08886 0.22216 0.12562 0.02424 0.39424 0.20035 0.86203 0.52648 1.1894 0.8743 0.87742 2.6385 0.52967 4.4091-0.8407 1.1367-0.87742 2.3262-2.117 3.4005-3.4297 0.04039-0.0509 0.06948-0.13249-0.0081-0.21529-0.16359-0.17127-0.40029-0.36717-0.56255-0.51804-0.07392-0.06301-0.18258-0.04484-0.24478 0.0022-1.1013 1.0474-2.0926 2.2418-3.5253 3.2296-0.48326 0.33728-1.2534 0.60933-1.5993 0.14097-0.13491-0.18177-0.11956-0.43305 0.01212-0.76298 0.4177-1.0417 7.0316-11.111 7.3749-11.705"/>
			<path d="m40.571 13.29c0.02828 0.14945 0.08644 0.17854 0.1543 0.16602 0.33688-0.06746 0.70554-0.34455 0.92383-0.66576 0.19873-0.29123 0.29204-0.71152 0.09452-0.87992-0.17611-0.15147-0.46286-0.10866-0.67545 0.07917-0.42336 0.37404-0.55193 0.90472-0.49736 1.3008m-16.857 12.962c-2.466 0.01616-4.6386-1.5068-4.8879-4.145-0.13855-1.4619 0.27467-2.7649 1.102-3.8383 0.7341-0.95646 1.9762-1.7511 3.0277-1.9452 0.34213-0.06261 0.80184-0.02424 0.99189 0.20358 0.2981 0.34698 0.21247 0.72812-0.08563 0.8802-0.80216 0.40954-1.7674 1.1107-2.245 2.0681-0.38737 0.78144-0.46565 1.7232 0.12603 2.6203 0.99031 1.4952 3.7508 1.5363 6.3175-0.84825 0.63566-0.5836 1.2045-1.1443 1.7827-1.8085 1.1305-1.2926 1.5065-1.7636 3.0092-3.848 0.01616-0.02424 0.02424-0.05574 0.01616-0.07109-0.01212-0.02827-0.03231-0.03232-0.07715-0.03635-1.0032 0.02827-1.8778 0.32678-2.7279 0.96208-0.24478 0.17854-0.59709 0.15349-0.75135-0.08159-0.17167-0.26579-0.04847-0.61179 0.23388-0.80717 1.3675-0.95109 2.8615-1.1236 4.3871-1.381-0.0013 0 0.10583 4e-3 0.19308-0.11068 0.62625-0.80374 1.0991-1.5288 1.7667-2.3416 0.67266-0.8247 1.5416-1.582 2.2055-2.1509 0.92666-0.79679 1.5209-1.0649 2.1249-1.3936 0.15915-0.08321-0.0202-0.18258-0.06867-0.18258-3.372-0.63377-6.8769-1.4538-10.226-0.21408-2.3193 0.8655-3.3356 2.7047-2.8467 3.9336 0.34778 0.87176 1.4943 1.0135 2.5677 0.48823 0.89151-0.43681 1.7166-1.1408 2.3014-2.0471 0.32718-0.5033 1.0166-0.14016 0.64411 0.73378-0.97997 2.3033-2.8521 4.1303-5.1325 4.2074-1.9408 0.06301-3.1929-1.3648-3.1889-3.1262 0.0081-3.4742 3.8756-5.7627 7.9403-6.1049 4.8951-0.40454 9.5314 0.89935 14.392 1.4889 3.7238 0.45095 7.294 0.46036 11.037-0.39949 0.44246-0.096135 0.75292 0.18621 0.72408 0.63312-0.03635 0.646-0.53686 1.2681-1.7696 1.9405-1.402 0.76892-2.8687 1.0022-4.4006 1.0148-3.7041 0.03232-7.1544-1.413-10.725-2.1888 4e-3 0.15632 0.04524 0.34253-0.08563 0.44121-1.9778 1.4588-3.7655 2.9402-4.9628 5.0208-0.04039 0.04807-0.0202 0.09371 0.0513 0.08886 1.0396-0.05534 1.9744-0.082 2.9449-0.15955 0.16965-0.01616 0.17611-0.05655 0.16117-0.18015-0.08604-0.71718 0.1236-1.535 0.75446-2.0976 0.64568-0.57891 1.4541-0.64475 1.99-0.22782 0.60929 0.47478 0.55536 1.3287 0.22216 1.969-0.3393 0.64972-0.89967 0.99718-1.4375 1.1659 0 0-0.1131 0.02424-0.09614 0.12683 0.0202 0.164 0.75389 0.57011 0.81658 0.67828 0.06059 0.103 0.02828 0.26256-0.082 0.38494-0.07755 0.08887-0.19914 0.17207-0.35465 0.16925-0.12562-0.0025-0.20196-0.04605-0.36273-0.13289-0.3288-0.17813-0.73972-0.47098-1.0138-0.81626-0.09331-0.11674-0.14097-0.11916-0.37404-0.10623-1.0502 0.06059-2.6877 0.21893-3.7972 0.35748-0.26902 0.03232-0.3086 0.08361-0.36394 0.17692-1.7689 2.917-3.6577 6.0626-5.7314 8.1686-2.2243 2.2581-4.0732 2.8527-6.0359 2.8681"/>
			<path d="m45.157 2.769c-23.06 0-41.751 6.3721-41.751 14.169 0 7.7979 18.692 14.171 41.751 14.171 23.059 0 41.75-6.3727 41.75-14.171 0-7.7973-18.69-14.169-41.75-14.169m0 29.624c-23.899 0-43.273-6.9193-43.273-15.455 0-8.5368 19.374-15.455 43.273-15.455 23.897 0 43.269 6.918 43.269 15.455 0 8.5355-19.372 15.455-43.269 15.455"/>
		</g>
	</g>
</svg>
