<svg width="256" height="161.98" version="1.1" viewBox="0 0 256 161.98" xmlns="http://www.w3.org/2000/svg">
	<g>
		<path d="m77.645 130.99c-18.882 0-23.75 8.2639-23.75 15.496 0 7.2322 4.8684 15.494 23.75 15.494 18.882 0 23.748-8.262 23.748-15.494 0-7.2322-4.8664-15.496-23.748-15.496zm78.16 0.99413v3.9316l3.4297 0.36328c1.2212 0.14724 2.0273 0.66763 2.0273 2.3652v15.365c0 0.93541-0.18962 2.3906-1.9219 2.5898l-3.8906 0.45117v3.9317l29.059-0.0107c10.394 0 18.943-4.1833 18.943-14.49 0-10.316-8.5498-14.498-18.943-14.498zm55.018 0v3.9336l5.2578 0.59571c0.7189 0.078 1.7495 1.0922 0.91798 2.4434l-9.8828 16.084c-0.39841 0.65826-0.89968 1.4125-2.043 1.5684l-3.9336 0.4414v3.9317h18.57v-3.9317l-3.1953-0.3203c-1.3598-0.14724-2.0974-1.0995-1.4219-2.2168l1.4902-2.418h17.834l1.3086 2.0019c1.1606 1.7582-0.30382 2.4853-1.5684 2.6152l-3.2832 0.33789v3.9317h25.127v-3.9317l-3.6895-0.41601c-1.8362-0.20788-2.4166-1.3947-2.9883-2.2695l-13.381-20.449c-0.9614-1.4724-1.656-1.9316-3.0938-1.9316zm-210.82 0.00587v3.9238l3.8809 0.45897c1.7323 0.19056 1.9219 1.6553 1.9219 2.582v15.053c0 0.93543-0.18962 2.3906-1.9219 2.5898l-3.8809 0.45118v3.9316h23.23v-3.9316l-3.8809-0.45118c-1.7409-0.1992-1.9316-1.6544-1.9316-2.5898v-4.5898h17.895v4.5898c0 0.93543-0.19072 2.3906-1.9316 2.5898l-3.8809 0.45118v3.9316h23.248v-3.9316l-3.8809-0.45118c-1.7409-0.1992-1.9316-1.6544-1.9316-2.5898v-15.053c0-0.92676 0.19072-2.3915 1.9316-2.582l3.8809-0.45897v-3.9238h-23.248v3.9238l3.8809 0.45897c1.7409 0.19056 1.9316 1.6553 1.9316 2.582v4.5996h-17.895v-4.5996c0-0.92676 0.19072-2.3915 1.9316-2.582l3.8809-0.45897v-3.9238zm102.64 1e-3v3.9238l3.8887 0.45897c1.7322 0.19056 1.9219 1.6553 1.9219 2.582v15.053c0 0.93542-0.18963 2.3906-1.9219 2.5898l-3.8887 0.44922v3.9336h18.578v-3.9336l-3.8887-0.44922c-1.7409-0.1992-1.9316-1.6544-1.9316-2.5898v-14.508l15.348 20.242c0.70156 0.93541 1.2997 1.2383 2.9453 1.2383h14.127v-22.025c0-0.92674 0.18877-2.3915 1.9297-2.582l3.8809-0.45897v-3.9238h-18.57v3.9238l3.8809 0.45897c1.7409 0.19056 1.9316 1.6553 1.9316 2.582v14.506l-15.348-20.25c-0.69289-0.92676-1.291-1.2207-2.9453-1.2207zm-24.992 4.5241c7.3188 0 10.367 3.0676 10.367 9.9707 0 6.9031-3.0484 9.9688-10.367 9.9688-7.3188 0-10.367-3.0657-10.367-9.9688 0-6.903 3.0484-9.9707 10.367-9.9707zm95.016 1.0293h9.7344c5.7424 0 7.6914 2.7187 7.6914 8.9375s-1.949 8.9394-7.6914 8.9394l-9.7344 8e-3zm52.566 0.49415 5.8281 8.9297h-11.32z"/>
		<path d="m190.31 58.169c-1.1 14.88-2.4252 23.801-4.322 30.237-1.663 5.6385-3.7157 9.4235-6.7212 12.143-5.0236 4.5385-11.935 5.5172-15.989 6.1235-8.7652 1.2905-23.524 1.7496-35.122 1.7496-11.589 0-26.348-0.45905-35.113-1.7496-4.0535-0.60629-10.965-1.585-15.989-6.1235-3.0055-2.7196-5.0669-6.5046-6.7212-12.143-1.8968-6.4353-3.222-15.356-4.322-30.237-0.66692-8.9731-0.52834-23.498 0.46771-31.319 1.4897-11.641 7.2755-17.504 19.661-19.713 5.7857-1.0307 13.564-1.7582 20.934-2.1307 5.9157-0.39842 15.651-0.59763 21.082-0.54566 5.4393-0.051968 15.175 0.14724 21.082 0.54566 7.3794 0.37244 15.157 1.1 20.943 2.1307 12.386 2.2086 18.171 8.0723 19.661 19.713 0.99605 7.8211 1.1346 22.346 0.46771 31.319m6.8338-31.293c-1.8968-18.63-14.326-22.563-25.239-24.39-5.4999-0.92676-15.27-1.7063-21.532-1.9575-5.4739-0.35511-18.379-0.52834-22.216-0.52834-3.8283 0-16.734 0.17323-22.208 0.52834-6.2621 0.25118-16.041 1.0307-21.532 1.9575-10.913 1.8275-23.342 5.7598-25.239 24.39-0.51102 5.0755-0.66692 11.693-0.57164 18.83 0.16456 11.797 1.1779 19.774 1.7582 25.291 0.39842 3.785 1.9748 15.175 4.0102 21.064 2.7889 8.0896 5.3007 10.446 8.2542 12.853 5.396 4.4086 14.3 5.7598 16.188 6.1062 10.047 1.8016 30.366 2.1307 39.34 2.1134 8.9731 0.0173 29.301-0.31181 39.348-2.1134 1.8968-0.34645 10.792-1.6976 16.188-6.1062 2.9535-2.4078 5.4653-4.7637 8.2542-12.853 2.0354-5.8897 3.6118-17.279 4.0102-21.064 0.5803-5.5172 1.5937-13.494 1.7496-25.291 0.0953-7.1369-0.052-13.754-0.56299-18.83m-36.957-17.315c-3.2047 14.256-4.4606 20.813-7.059 31.137-2.5031 9.9085-4.4259 19.107-7.7692 23.567-3.3952 4.5212-7.9078 5.5086-10.991 5.855-1.5937 0.18189-2.7456 0.25984-6.2101 0.2685-3.4472-0.0087-4.6078-0.08661-6.2102-0.2685-3.0748-0.34645-7.596-1.3338-10.991-5.855-3.3346-4.4606-5.2661-13.659-7.7605-23.567-2.5984-10.324-3.8629-16.881-7.059-31.137 0 0-3.1874 0.12126-4.5991 0.22519-1.9141 0.12992-3.4125 0.29448-5.0409 0.51102 0 0 1.8362 29.336 2.6677 41.756 0.87479 13.079 2.4078 35.096 3.8543 51.725 0 0 2.6763 0.43306 7.1196 0.68424 4.6858 0.2685 6.7645 0.29448 6.7645 0.29448 1.9228-7.3274 4.3047-17.487 7.007-21.826 2.2-3.5251 5.5865-3.8976 7.5007-4.1574 3.0141-0.41574 5.5606-0.47637 6.7385-0.44172h0.0263c1.1779-0.03465 3.7157 0.02598 6.7298 0.44172 1.9228 0.25984 5.3007 0.63227 7.5007 4.1574 2.7023 4.3393 5.0842 14.499 7.0156 21.826 0 0 2.0787-0.026 6.7472-0.29448 4.4519-0.25118 7.1369-0.68424 7.1369-0.68424 1.4378-16.63 2.9708-38.647 3.8456-51.725 0.83148-12.42 2.6677-41.756 2.6677-41.756-1.6283-0.21653-3.1267-0.3811-5.0322-0.51102-1.4118-0.10394-4.5991-0.22519-4.5991-0.22519"/>
	</g>
</svg>
