<svg id="Nissan_Logo" width="256" height="219.14" enable-background="new 0 0 210 181" version="1.1" viewBox="0 0 256 219.14" xmlns="http://www.w3.org/2000/svg">
	<title>Nissan Logo</title>
	<desc>Für mehr Informationen siehe: http://de.wikipedia.org/wiki/Datei:Nissan_Logo.svg</desc>
	<linearGradient id="SVGID_1_" x1="302.6" x2="302.6" y1="492.39" y2="631.79" gradientTransform="matrix(1.28 0 0 1.28 -259.33 -627.06)" gradientUnits="userSpaceOnUse">
		<stop stop-color="#fff" offset=".1944"/>
		<stop stop-color="#F8F8F8" offset=".2085"/>
		<stop stop-color="#AEAEAE" offset=".3657"/>
		<stop stop-color="#707070" offset=".5133"/>
		<stop stop-color="#404040" offset=".6468"/>
		<stop stop-color="#1D1D1D" offset=".7637"/>
		<stop stop-color="#080808" offset=".8595"/>
		<stop offset=".9222"/>
	</linearGradient>
	<radialGradient id="SVGID_2_" cx="246.46" cy="455.43" r="139.46" gradientTransform="matrix(1.28 0 0 1.28 -259.33 -627.06)" gradientUnits="userSpaceOnUse">
		<stop stop-color="#fff" offset=".2022"/>
		<stop stop-color="#FDFDFD" offset=".3822"/>
		<stop stop-color="#F4F4F4" offset=".4874"/>
		<stop stop-color="#E6E6E6" offset=".5732"/>
		<stop stop-color="#D2D2D2" offset=".6483"/>
		<stop stop-color="#C4C4C4" offset=".6889"/>
		<stop stop-color="#333" offset="1"/>
	</radialGradient>
	<radialGradient id="SVGID_3_" cx="583.97" cy="678.81" r="290.45" gradientTransform="matrix(1.28 0 0 1.28 -259.33 -627.06)" gradientUnits="userSpaceOnUse">
		<stop stop-color="#fff" offset=".2022"/>
		<stop stop-color="#E4E4E4" offset=".368"/>
		<stop stop-color="#C4C4C4" offset=".5944"/>
		<stop stop-color="#333" offset="1"/>
	</radialGradient>
	<radialGradient id="SVGID_4_" cx="279.96" cy="614.72" r="89.169" gradientTransform="matrix(1.28 0 0 1.28 -259.33 -627.06)" gradientUnits="userSpaceOnUse">
		<stop stop-color="#fff" offset=".2022"/>
		<stop stop-color="#E4E4E4" offset=".368"/>
		<stop stop-color="#C4C4C4" offset=".5944"/>
		<stop stop-color="#333" offset="1"/>
	</radialGradient>
	<radialGradient id="SVGID_5_" cx="351.91" cy="705.9" r="169.19" gradientTransform="matrix(1.28 0 0 1.28 -259.33 -627.06)" gradientUnits="userSpaceOnUse">
		<stop stop-color="#fff" offset=".2022"/>
		<stop stop-color="#E4E4E4" offset=".368"/>
		<stop stop-color="#C4C4C4" offset=".5944"/>
		<stop stop-color="#333" offset="1"/>
	</radialGradient>
	<radialGradient id="SVGID_6_" cx="301.26" cy="507.5" r="134.45" gradientTransform="matrix(1.28 0 0 1.28 -259.33 -627.06)" gradientUnits="userSpaceOnUse">
		<stop stop-color="#fff" offset=".2022"/>
		<stop stop-color="#FDFDFD" offset=".3966"/>
		<stop stop-color="#F4F4F4" offset=".5101"/>
		<stop stop-color="#E6E6E6" offset=".6029"/>
		<stop stop-color="#D2D2D2" offset=".6839"/>
		<stop stop-color="#C4C4C4" offset=".7278"/>
		<stop stop-color="#4D4D4D" offset="1"/>
	</radialGradient>
	<radialGradient id="NISSAN_1_" cx="304.38" cy="520.97" r="90.56" gradientTransform="matrix(1.28 0 0 1.28 -259.33 -627.06)" gradientUnits="userSpaceOnUse">
		<stop stop-color="#4D4D4D" offset=".1111"/>
		<stop stop-color="#494949" offset=".248"/>
		<stop stop-color="#404040" offset=".3546"/>
		<stop stop-color="#2F2F2F" offset=".451"/>
		<stop stop-color="#181818" offset=".5409"/>
		<stop offset=".6111"/>
	</radialGradient>
	<g stroke-width=".78125">
		<path d="m247.17 83.076c-2.304-0.64-4.992-1.024-10.496-1.664-23.04-1.024-79.744-3.2-108.67-3.2s-85.632 2.176-108.67 3.2c-5.504 0.64-8.192 1.024-10.496 1.664-7.296 1.664-8.832 4.224-8.832 9.472v35.456c0 5.12 5.504 8.704 9.344 9.344 3.84 0.768 6.272 1.024 10.24 1.408 20.48 1.28 68.224 3.968 108.42 3.968s87.808-2.688 108.42-3.968c3.968-0.384 6.4-0.64 10.24-1.408 3.84-0.64 9.344-4.224 9.344-9.344v-35.456c0-5.248-1.536-7.808-8.832-9.472z" fill="url(#SVGID_1_)"/>
		<path d="m35.84 84.484c11.264-39.296 48.384-68.096 92.544-68.096 43.904 0 81.024 28.672 92.416 67.84 0 0.128 0 0.256 0.128 0.384 6.528-0.768 12.416-1.92 16.512-2.944-0.128-0.256-0.128-0.256-0.128-0.512-12.928-46.848-56.832-81.152-108.93-81.152-52.224 0-96.256 34.56-109.06 81.408 5.76 1.536 9.984 2.176 16.512 3.072z" fill="url(#SVGID_2_)"/>
		<path d="m220.54 135.94c-0.128 0.384-0.256 0.768-0.256 0.896-12.032 38.272-48.64 66.048-91.904 66.048-43.648 0-80.384-28.16-92.16-66.944-7.168 1.28-9.6 1.792-16.64 2.688 13.184 46.464 56.832 80.512 108.8 80.512s95.744-34.176 108.8-80.64c-6.272-0.64-9.856-1.28-16.64-2.56z" fill="url(#SVGID_3_)"/>
		<path d="m38.272 84.356c2.688-1.152 5.376-2.944 9.472-4.096 12.288-31.744 43.776-54.4 80.768-54.4 36.864 0 68.352 22.528 80.64 54.144 0 0.128 0.128 0.256 0.128 0.256 2.176 0.768 8.32 3.2 10.24 4.096h1.408c0-0.128-0.128-0.256-0.128-0.384-11.392-39.168-48.512-67.84-92.416-67.84-44.032 0-81.152 28.8-92.544 68.096 0.768 0.256 1.92 0.128 2.432 0.128z" fill="url(#SVGID_4_)"/>
		<path d="m127.74 18.948c41.216 0 77.824 24.576 91.648 65.152 0 0.128 0.128 0.256 0.128 0.384h1.408c0-0.128-0.128-0.256-0.128-0.384-11.392-39.168-48.512-67.84-92.416-67.84-44.032 0-81.152 28.8-92.544 68.096 0.896 0 1.28 0 2.304-0.128 12.416-38.4 48.64-65.28 89.6-65.28z" fill="#fff"/>
		<path d="m218.24 136.07c-2.944 1.664-6.656 3.2-9.6 4.224 0 0.128-0.256 0.512-0.256 0.64-12.8 30.72-43.776 52.48-80 52.48-36.48 0-67.584-22.016-80.256-52.992-3.456-0.896-8.448-3.2-10.368-4.224-0.768 0-1.152 0-1.536-0.128 11.776 38.656 48.512 66.944 92.16 66.944 43.392 0 80.128-27.904 91.904-66.304 0-0.128 0.128-0.512 0.128-0.512-0.512-0.256-1.664-0.128-2.176-0.128z" fill="url(#SVGID_5_)"/>
		<path d="m245.12 85.636c-6.144-0.768-10.24-0.64-25.088-1.152-0.64 0-1.408 0-2.048-0.128-26.88-0.896-67.2-2.176-89.984-2.176s-63.232 1.28-89.984 2.176c-0.64 0-1.408 0-2.048 0.128-14.848 0.512-18.944 0.384-25.088 1.152s-10.88 3.328-10.88 7.936v32.896c0 4.48 5.76 8.192 10.88 8.192 0 0 64.896 3.968 117.12 4.096 52.224 0 117.12-4.096 117.12-4.096 5.12 0 10.88-3.712 10.88-8.192v-32.896c0-4.608-4.736-7.168-10.88-7.936z" fill="url(#SVGID_6_)"/>
		<path d="m218.24 136.07c-12.8 37.76-48.64 64.128-89.088 64.128-40.96 0-77.184-24.192-91.264-64.128-0.512 0-1.024 0-1.536-0.128 11.776 38.656 48.512 66.944 92.16 66.944s80.384-28.288 92.16-66.944c-0.896 0-1.664 0.128-2.432 0.128z" fill="#fff"/>
		<path d="m218.24 136.07c-3.072 1.664-6.784 3.2-9.728 4.224 0 0.128-0.256 0.512-0.256 0.64-4.096 9.728-9.856 18.56-17.152 26.112 11.52-8.448 20.736-18.944 27.136-30.976z" fill="#8c8c8c"/>
		<path d="m68.096 169.35c-8.576-8.192-15.36-18.048-19.84-29.056-3.456-0.896-8.448-3.2-10.368-4.224 2.048 4.352 4.48 8.32 7.168 12.16 5.632 7.296 12.544 13.952 20.224 19.456 0.896 0.512 1.92 1.152 2.816 1.664z" fill="#4d4d4d"/>
		<path d="m36.224 135.94c-7.168 1.28-9.6 1.792-16.64 2.688 0.512 2.048 1.152 3.968 1.92 6.016z" fill="#252525"/>
		<path id="NISSAN" d="m179.97 100.1c-2.176-4.736-1.408-4.224-6.016-4.352-0.384-0.128-1.408-0.128-2.816-0.128s-1.664 0-2.816 0.128c-4.352 0-3.584-0.256-5.12 2.944 0 0-7.552 16.896-10.752 23.936l-0.128 0.256c-0.64 1.28-0.256 1.28 0.768 1.28h6.784c0.512 0 0.768-0.256 0.896-0.512 0 0 1.024-2.176 2.304-5.12h16.512c1.28 2.944 2.176 4.992 2.176 5.12 0.128 0.384 0.512 0.512 0.896 0.512h7.04c1.024 0 1.28 0.128 0.896-0.768-1.28-3.072-9.472-20.608-10.624-23.296zm-14.336 12.416c2.176-4.992 4.224-9.856 4.224-9.984 0.128-0.256 0.384-0.384 0.768-0.384 0.128-0.128 0.512-0.128 0.896-0.128 0.256 0 0.64 0 0.768 0.128 0.256 0 0.512 0.128 0.64 0.512 0.512 1.408 2.432 5.632 4.096 9.856zm-90.496-17.152c0.64 0 0.768 0.256 0.768 0.768v26.88c0 0.64-0.128 0.896-0.896 0.896h-6.528c-0.768 0-0.896-0.128-0.896-0.896v-26.88c0-0.512 0.128-0.768 0.64-0.768zm-13.952 0.256c0.768 0 0.896 0.256 0.896 0.896v26.752c0 0.768-0.128 0.896-0.896 0.896h-7.68c-4.48 0-4.864 0-6.4-2.56-3.072-4.864-12.544-19.328-12.544-19.328v20.992c0 0.768-0.128 0.896-0.896 0.896h-5.632c-0.768 0-0.896-0.128-0.896-0.896v-26.752c0-0.64 0.128-0.896 0.896-0.896h6.528c4.864 0 5.504-0.128 7.296 2.432 1.408 2.304 12.8 19.84 12.8 19.84v-21.376c0-0.64 0.128-0.896 0.896-0.896zm167.68 0c0.768 0 0.896 0.256 0.896 0.896v26.752c0 0.768-0.128 0.896-0.896 0.896h-7.68c-4.48 0-4.864 0-6.4-2.56-3.2-4.864-12.544-19.328-12.544-19.328v20.992c0 0.768-0.128 0.896-0.896 0.896h-5.632c-0.768 0-0.896-0.128-0.896-0.896v-26.752c0-0.64 0.128-0.896 0.896-0.896h6.528c4.864 0 5.504-0.128 7.296 2.432 1.536 2.304 12.8 19.84 12.8 19.84v-21.376c0-0.64 0.128-0.896 0.896-0.896zm-124.93 10.88c4.992 0.512 8.704 1.408 9.728 6.144 0 0.384 0.128 1.664 0.128 3.072 0 0.896 0 2.048-0.256 3.072-0.896 4.48-4.224 5.376-9.6 5.376h-21.12c-0.768 0-0.896-0.128-0.896-0.896v-4.48c0-0.768 0.128-0.896 0.896-0.896h21.376c0.896 0 1.152-0.256 1.28-0.896v-1.92c-0.128-0.512-0.256-1.28-1.408-1.408-2.432-0.128-9.472-0.768-14.208-1.28-6.144-0.64-7.68-3.2-7.936-5.504-0.128-0.768-0.128-1.792-0.128-2.688 0-0.768 0-1.92 0.128-2.816 0.896-3.968 3.84-5.888 9.216-5.888h20.48c0.768 0 1.024 0.128 1.024 0.768v4.608c0 0.64-0.256 0.896-1.024 0.768h-20.096c-0.896 0-1.28 0.384-1.408 1.28v1.152c0 0.64 0.384 1.152 1.28 1.28 2.304 0.384 9.728 0.896 12.544 1.152zm36.224 0c4.992 0.512 8.704 1.408 9.728 6.144 0 0.384 0.128 1.664 0.128 3.072 0 0.896 0 2.048-0.256 3.072-0.896 4.48-4.224 5.376-9.6 5.376h-20.992c-0.768 0-0.896-0.128-0.896-0.896v-4.48c0-0.768 0.128-0.896 0.896-0.896h21.376c0.896 0 1.152-0.256 1.28-0.896v-1.92c-0.128-0.512-0.384-1.28-1.408-1.408-2.432-0.128-9.472-0.768-14.208-1.28-6.144-0.64-7.552-3.2-7.936-5.504-0.128-0.768-0.128-1.792-0.128-2.688 0-0.768 0-1.92 0.128-2.816 0.896-3.968 3.84-5.888 9.216-5.888h20.48c0.768 0 1.024 0.128 1.024 0.768v4.608c0 0.64-0.256 0.896-1.024 0.768h-20.096c-0.896 0-1.28 0.384-1.408 1.28v1.152c0 0.64 0.256 1.152 1.28 1.28 2.304 0.384 9.728 0.896 12.416 1.152z" fill="url(#NISSAN_1_)"/>
	</g>
</svg>
