<svg width="256" height="256" version="1.1" viewBox="0 0 256 256" xmlns="http://www.w3.org/2000/svg">
	<path d="m-2.0033e-7 256h256v-256h-256z" fill="#e20026"/>
	<path d="m131.37 179.06c8.9628-3.5773 17.08-21.386 17.08-51.342v-1.0098c25.025-3.3973 42.575-13.072 43.319-26.051 5.6986 7.0059 8.9785 15.46 8.9785 25.252 0 28.274-31.1 51.836-69.378 53.151m-76.117-53.151c0-9.7926 3.272-18.247 8.9785-25.252 0.73581 12.978 18.294 22.654 43.319 26.051 0 0.33659-8e-3 0.67319-8e-3 1.0098 0 31.311 8.0313 47.906 16.924 51.335-38.207-1.3699-69.213-24.908-69.213-53.143m19.53-31.1c0.95499-3.8434 6.7006-8.3053 15.945-11.82 10.012-3.6556 21.511-5.7143 33.652-6.0587-8.9706 3.2642-14.38 18.685-16.172 36.932-26.857-2.9276-35.202-11.883-33.425-19.053m53.213 20.023c-4.5323 0-8.7202-0.12524-12.587-0.3679 2.0352-15.115 7.452-23.906 12.587-23.906s10.552 8.7906 12.595 23.906c-3.8748 0.24266-8.0626 0.3679-12.595 0.3679m13.44 12.885c0 23.123-6.9432 32.705-13.44 32.705-6.4892 0-13.432-9.5812-13.432-32.705v-0.23483c4.3131 0.36008 8.8063 0.55577 13.432 0.55577 4.634 0 9.1194-0.19569 13.432-0.55577 0 0.0783 8e-3 0.15656 8e-3 0.23483m39.765-32.908c1.7847 7.1624-6.5597 16.117-33.417 19.053-1.7847-18.247-7.1937-33.667-16.164-36.932 12.07 0.34442 23.522 2.3875 33.495 6.0039 9.3307 3.5225 15.131 8.0157 16.086 11.875m-53.206-24.924c-48.337 0-85.331 24.924-85.331 58.113 0 32.094 36.055 58.121 85.331 58.121 49.284 0 85.339-26.027 85.339-58.121 0-33.19-37.002-58.113-85.339-58.113" fill="#fff"/>
</svg>
